<svg xmlns="http://www.w3.org/2000/svg" xmlns:xlink="http://www.w3.org/1999/xlink" width="25" height="22" viewBox="0 0 25 22">
    <defs>
        <path id="a" d="M18 0h4a3 3 0 0 1 3 3v4a3 3 0 0 1-3 3h-4a3 3 0 0 1-3-3V3a3 3 0 0 1 3-3z"/>
    </defs>
    <g fill="none" fill-rule="evenodd">
        <path fill="#F36767" d="M8.497 13.864l6.83 3.98a1 1 0 1 0 1.007-1.728l-6.83-3.98a1 1 0 1 0-1.007 1.728z"/>
        <path fill="#01BDCB" d="M8.497 8.116l6.83-3.98a1 1 0 1 1 1.007 1.728l-6.83 3.98a1 1 0 0 1-1.007-1.728z"/>
        <path fill="#F36767" d="M18 12h4a3 3 0 0 1 3 3v4a3 3 0 0 1-3 3h-4a3 3 0 0 1-3-3v-4a3 3 0 0 1 3-3z"/>
        <path fill="#01BDCB" d="M3 6h4a3 3 0 0 1 3 3v4a3 3 0 0 1-3 3H3a3 3 0 0 1-3-3V9a3 3 0 0 1 3-3z"/>
        <use fill="#DFB319" xlink:href="#a"/>
    </g>
</svg>
